<svg xmlns="http://www.w3.org/2000/svg" xmlns:xlink="http://www.w3.org/1999/xlink" viewBox="0 0 481 155" xmlns:v="https://vecta.io/nano"><g fill="#c1973d"><path d="M407.5 59.5c-.7-.7-1.7-1.2-2.7-1.2-2.3-.1-4.3 1.9-4.3 4.3v8.7h8.2v-8.9c0-1.1-.5-2.1-1.2-2.9zm-.8 9.9h-4.4v-4.6h4.4v4.6zm0-6.5h-4.4v-.3c0-1.3 1-2.4 2.2-2.4h.1c.5 0 1.1.2 1.5.6s.6 1 .6 1.6v.5h0zm11.8-3.4c-.8-.8-1.8-1.2-2.9-1.2-2.3 0-4.1 1.8-4.1 4.1v8.9h8.2v-8.9c0-1.1-.4-2.1-1.2-2.9zm-.7 9.9h-4.4v-4.6h4.4v4.6zm0-6.5h-4.4v-.5a2.22 2.22 0 0 1 2.2-2.2c.6 0 1.1.2 1.6.6.4.4.6 1 .6 1.6v.5h0zm.7-3.4c-.8-.8-1.8-1.2-2.9-1.2-2.3 0-4.1 1.8-4.1 4.1v8.9h8.2v-8.9c0-1.1-.4-2.1-1.2-2.9zm-.7 9.9h-4.4v-4.6h4.4v4.6zm0-6.5h-4.4v-.5a2.22 2.22 0 0 1 2.2-2.2c.6 0 1.1.2 1.6.6.4.4.6 1 .6 1.6v.5h0zm-10.3-3.4c-.7-.7-1.7-1.2-2.7-1.2-2.3-.1-4.3 1.9-4.3 4.3v8.7h8.2v-8.9c0-1.1-.5-2.1-1.2-2.9zm-.8 9.9h-4.4v-4.6h4.4v4.6zm0-6.5h-4.4v-.3c0-1.3 1-2.4 2.2-2.4h.1c.5 0 1.1.2 1.5.6s.6 1 .6 1.6v.5h0zm.8-3.4c-.7-.7-1.7-1.2-2.7-1.2-2.3-.1-4.3 1.9-4.3 4.3v8.7h8.2v-8.9c0-1.1-.5-2.1-1.2-2.9zm-.8 9.9h-4.4v-4.6h4.4v4.6zm0-6.5h-4.4v-.3c0-1.3 1-2.4 2.2-2.4h.1c.5 0 1.1.2 1.5.6s.6 1 .6 1.6v.5h0zm11.8-3.4c-.8-.8-1.8-1.2-2.9-1.2-2.3 0-4.1 1.8-4.1 4.1v8.9h8.2v-8.9c0-1.1-.4-2.1-1.2-2.9zm-.7 9.9h-4.4v-4.6h4.4v4.6zm0-6.5h-4.4v-.5a2.22 2.22 0 0 1 2.2-2.2c.6 0 1.1.2 1.6.6.4.4.6 1 .6 1.6v.5h0zm.7-3.4c-.8-.8-1.8-1.2-2.9-1.2-2.3 0-4.1 1.8-4.1 4.1v8.9h8.2v-8.9c0-1.1-.4-2.1-1.2-2.9zm-.7 9.9h-4.4v-4.6h4.4v4.6zm0-6.5h-4.4v-.5a2.22 2.22 0 0 1 2.2-2.2c.6 0 1.1.2 1.6.6.4.4.6 1 .6 1.6v.5h0zm-10.3-3.4c-.7-.7-1.7-1.2-2.7-1.2-2.3-.1-4.3 1.9-4.3 4.3v8.7h8.2v-8.9c0-1.1-.5-2.1-1.2-2.9zm-.8 9.9h-4.4v-4.6h4.4v4.6zm0-6.5h-4.4v-.3c0-1.3 1-2.4 2.2-2.4h.1c.5 0 1.1.2 1.5.6s.6 1 .6 1.6v.5h0zm.8-3.4c-.7-.7-1.7-1.2-2.7-1.2-2.3-.1-4.3 1.9-4.3 4.3v8.7h8.2v-8.9c0-1.1-.5-2.1-1.2-2.9zm-.8 9.9h-4.4v-4.6h4.4v4.6zm0-6.5h-4.4v-.3c0-1.3 1-2.4 2.2-2.4h.1c.5 0 1.1.2 1.5.6s.6 1 .6 1.6v.5h0zm11.8-3.4c-.8-.8-1.8-1.2-2.9-1.2-2.3 0-4.1 1.8-4.1 4.1v8.9h8.2v-8.9c0-1.1-.4-2.1-1.2-2.9zm-.7 9.9h-4.4v-4.6h4.4v4.6zm0-6.5h-4.4v-.5a2.22 2.22 0 0 1 2.2-2.2c.6 0 1.1.2 1.6.6.4.4.6 1 .6 1.6v.5h0zm.7-3.4c-.8-.8-1.8-1.2-2.9-1.2-2.3 0-4.1 1.8-4.1 4.1v8.9h8.2v-8.9c0-1.1-.4-2.1-1.2-2.9zm-.7 9.9h-4.4v-4.6h4.4v4.6zm0-6.5h-4.4v-.5a2.22 2.22 0 0 1 2.2-2.2c.6 0 1.1.2 1.6.6.4.4.6 1 .6 1.6v.5h0zm-13.1-4.6c-2.3-.1-4.3 1.9-4.3 4.3v8.7h8.2v-8.9c0-1.1-.4-2.1-1.2-2.9-.7-.7-1.6-1.2-2.7-1.2zm2 11.1h-4.4v-4.6h4.4v4.6zm0-6.5h-4.4v-.3c0-1.3 1-2.4 2.2-2.4h.1c.5 0 1.1.2 1.5.6s.6 1 .6 1.6v.5h0zm21.8 19.8l-.4-3.3-.4-3.4h0v-.4h0l-.6-5.4-6.3-55c-.1-1.3-1.2-2.3-2.6-2.3h-2.6c-.5 0-.9-.4-.9-.9V9.4c0-.5-.4-.8-.8-.8h-1.4V5.7c0-.5-.4-1-1-1h-3.2c-.5 0-1 .4-1 1v2.8H406c-.5 0-.8.4-.8.8v2.6c0 .5-.4.9-.9.9h-2.5c-1.3 0-2.4 1-2.6 2.3l-6.1 53.3-1.3 10.9-.4 3.3h0 4.5 0H424h0 4.5v.1zm-28.3-36.8l.4-3.6.4-3.1.9-7.4 1.6-13.8h0c0-.4.4-.7.7-.7h11.7a.68.68 0 0 1 .7.7h0l1.4 11.8 1.4 12.5.4 3.6h0l.1.6h-19.8l.1-.6h0 0zm-3.7 32.3l.4-3.3h0 0 0l.2-2.1.1-1.2v-.4l.3-2.6h0l1.5-12.9.3-2.6.2-2h20.8l.2 2 .5 4.3 1.6 13.5v.3l.6 4.9.3 2.2-27-.1h0zm19.1-19.9c-2.3 0-4.1 1.8-4.1 4.1v8.9h8.2v-8.9c0-1.1-.4-2.1-1.2-2.9s-1.8-1.2-2.9-1.2zm2.2 11.1h-4.4v-4.6h4.4v4.6zm0-6.5h-4.4v-.5a2.22 2.22 0 0 1 2.2-2.2c.6 0 1.1.2 1.6.6.4.4.6 1 .6 1.6v.5h0zm-13.1-4.6c-2.3-.1-4.3 1.9-4.3 4.3v8.7h8.2v-8.9c0-1.1-.4-2.1-1.2-2.9-.7-.7-1.6-1.2-2.7-1.2zm2 11.1h-4.4v-4.6h4.4v4.6zm0-6.5h-4.4v-.3c0-1.3 1-2.4 2.2-2.4h.1c.5 0 1.1.2 1.5.6s.6 1 .6 1.6v.5h0zm.8-3.4c-.7-.7-1.7-1.2-2.7-1.2-2.3-.1-4.3 1.9-4.3 4.3v8.7h8.2v-8.9c0-1.1-.5-2.1-1.2-2.9zm-.8 9.9h-4.4v-4.6h4.4v4.6zm0-6.5h-4.4v-.3c0-1.3 1-2.4 2.2-2.4h.1c.5 0 1.1.2 1.5.6s.6 1 .6 1.6v.5h0zm11.8-3.4c-.8-.8-1.8-1.2-2.9-1.2-2.3 0-4.1 1.8-4.1 4.1v8.9h8.2v-8.9c0-1.1-.4-2.1-1.2-2.9zm-.7 9.9h-4.4v-4.6h4.4v4.6zm0-6.5h-4.4v-.5a2.22 2.22 0 0 1 2.2-2.2c.6 0 1.1.2 1.6.6.4.4.6 1 .6 1.6v.5h0zm.7-3.4c-.8-.8-1.8-1.2-2.9-1.2-2.3 0-4.1 1.8-4.1 4.1v8.9h8.2v-8.9c0-1.1-.4-2.1-1.2-2.9zm-.7 9.9h-4.4v-4.6h4.4v4.6zm0-6.5h-4.4v-.5a2.22 2.22 0 0 1 2.2-2.2c.6 0 1.1.2 1.6.6.4.4.6 1 .6 1.6v.5h0zm-10.3-3.4c-.7-.7-1.7-1.2-2.7-1.2-2.3-.1-4.3 1.9-4.3 4.3v8.7h8.2v-8.9c0-1.1-.5-2.1-1.2-2.9zm-.8 9.9h-4.4v-4.6h4.4v4.6zm0-6.5h-4.4v-.3c0-1.3 1-2.4 2.2-2.4h.1c.5 0 1.1.2 1.5.6s.6 1 .6 1.6v.5h0zm.8-3.4c-.7-.7-1.7-1.2-2.7-1.2-2.3-.1-4.3 1.9-4.3 4.3v8.7h8.2v-8.9c0-1.1-.5-2.1-1.2-2.9zm-.8 9.9h-4.4v-4.6h4.4v4.6zm0-6.5h-4.4v-.3c0-1.3 1-2.4 2.2-2.4h.1c.5 0 1.1.2 1.5.6s.6 1 .6 1.6v.5h0zm11.8-3.4c-.8-.8-1.8-1.2-2.9-1.2-2.3 0-4.1 1.8-4.1 4.1v8.9h8.2v-8.9c0-1.1-.4-2.1-1.2-2.9zm-.7 9.9h-4.4v-4.6h4.4v4.6zm0-6.5h-4.4v-.5a2.22 2.22 0 0 1 2.2-2.2c.6 0 1.1.2 1.6.6.4.4.6 1 .6 1.6v.5h0zm.7-3.4c-.8-.8-1.8-1.2-2.9-1.2-2.3 0-4.1 1.8-4.1 4.1v8.9h8.2v-8.9c0-1.1-.4-2.1-1.2-2.9zm-.7 9.9h-4.4v-4.6h4.4v4.6zm0-6.5h-4.4v-.5a2.22 2.22 0 0 1 2.2-2.2c.6 0 1.1.2 1.6.6.4.4.6 1 .6 1.6v.5h0zm-10.3-3.4c-.7-.7-1.7-1.2-2.7-1.2-2.3-.1-4.3 1.9-4.3 4.3v8.7h8.2v-8.9c0-1.1-.5-2.1-1.2-2.9zm-.8 9.9h-4.4v-4.6h4.4v4.6zm0-6.5h-4.4v-.3c0-1.3 1-2.4 2.2-2.4h.1c.5 0 1.1.2 1.5.6s.6 1 .6 1.6v.5h0zm.8-3.4c-.7-.7-1.7-1.2-2.7-1.2-2.3-.1-4.3 1.9-4.3 4.3v8.7h8.2v-8.9c0-1.1-.5-2.1-1.2-2.9zm-.8 9.9h-4.4v-4.6h4.4v4.6zm0-6.5h-4.4v-.3c0-1.3 1-2.4 2.2-2.4h.1c.5 0 1.1.2 1.5.6s.6 1 .6 1.6v.5h0zm11.8-3.4c-.8-.8-1.8-1.2-2.9-1.2-2.3 0-4.1 1.8-4.1 4.1v8.9h8.2v-8.9c0-1.1-.4-2.1-1.2-2.9zm-.7 9.9h-4.4v-4.6h4.4v4.6zm0-6.5h-4.4v-.5a2.22 2.22 0 0 1 2.2-2.2c.6 0 1.1.2 1.6.6.4.4.6 1 .6 1.6v.5h0z"/><path d="M407.5 59.4c-.7-.7-1.7-1.2-2.7-1.2-2.3-.1-4.3 1.9-4.3 4.3v8.7h8.2v-8.9c0-1.1-.5-2.1-1.2-2.9zm-.8 9.9h-4.4v-4.6h4.4v4.6zm0-6.5h-4.4v-.3c0-1.3 1-2.4 2.2-2.4h.1c.5 0 1.1.2 1.5.6s.6 1 .6 1.6v.5h0zm11.8-3.4c-.8-.8-1.8-1.2-2.9-1.2-2.3 0-4.1 1.8-4.1 4.1v8.9h8.2v-8.9c0-1.1-.4-2.1-1.2-2.9zm-.7 9.9h-4.4v-4.6h4.4v4.6zm0-6.5h-4.4v-.5a2.22 2.22 0 0 1 2.2-2.2c.6 0 1.1.2 1.6.6.4.4.6 1 .6 1.6v.5h0zm-4.5-38.2h1.9v14.1h-1.9V24.6zm-4.3 0h1.9v14.1H409V24.6zm-4.3 0h1.9v14.1h-1.9V24.6zm76.1 115.2c-.5 1.1-1.8 1.7-2.9 1.2-.1 0-3.9-1.6-9.8-3-6-1.5-14.8-3-23.3-2.7h-.1c-13.2 0-24.7 6.9-31.2 17.4l-.6.9c-.7.8-1.7 1.3-2.9 1.3-1.3 0-2.4-.6-3-1.6-.1-.1-.1-.3-.2-.4-6.5-10.6-18.1-17.7-31.4-17.7-.2 0 0 0 0 0h-.7c-8.5-.3-16.7 1.2-22.7 2.7-5.8 1.5-9.7 3-9.8 3-1.1.5-2.5-.1-2.9-1.2-.5-1.1.1-2.5 1.2-2.9 1-.4 17.1-6.6 34.2-6.2h.7c13.7 0 25.8 6.7 33.3 17.1.1.2.4.4.5.7.3.6 1.2.6 1.6 0 .1-.3.3-.5.4-.7 7.5-10.3 19.7-17 33.4-17h1.3c17.2-.4 32.6 5.7 33.6 6.1 1.3.5 1.8 1.8 1.3 3h0zm-18.3-21.7c.3 0 .4-.3.2-.5l-3.8-4.6c-.1-.1-.1-.1-.2-.1-44.1 1.1-46.8 21.6-46.8 21.6 11.3-17.9 45.4-16.7 50.6-16.4h0zm-50.6 24.2c17.4-24.4 59.1-13.1 64.9-11.4.3.1.5-.2.3-.4l-2.9-5.2c0-.1-.1-.1-.2-.1-52.5-12-62.1 17.1-62.1 17.1h0zm-54.2-24.2c5.2-.3 39.3-1.5 50.6 16.4 0 0-2.7-20.4-46.8-21.6-.1 0-.2 0-.2.1l-3.8 4.6c-.2.2-.1.5.2.5h0zm-14.4 12.8c5.9-1.7 47.5-13 64.9 11.4 0 0-9.6-29.1-62.1-17.2-.1 0-.2.1-.2.1l-2.9 5.2c-.1.3.1.6.3.5h0z"/></g><linearGradient id="A" gradientUnits="userSpaceOnUse" x1="391.084" y1="146.865" x2="434.229" y2="31.128"><stop offset=".659" stop-color="#008268"/><stop offset=".869" stop-color="#037b65"/></linearGradient><path d="M412.4 94.9l-2.4.9h-.1-.1l-2.4-.9-1.2-.4v2.7.4c0 2 1.6 3.7 3.7 3.7 2 0 3.7-1.6 3.7-3.7v-.4-2.8c0 0-1.2.5-1.2.5z" fill="url(#A)"/><linearGradient id="B" gradientUnits="userSpaceOnUse" x1="390.177" y1="146.526" x2="433.321" y2="30.789"><stop offset=".659" stop-color="#008268"/><stop offset=".869" stop-color="#037b65"/></linearGradient><path d="M405.2 97.7c-.7.2-.1 1.4-.1 1.4s.1.1.3.1l.1-.5.1.5c.1 0 .2-.1.3-.1 0 0 .5-1.2-.3-1.4V94l.7.3 1.3.5 2.3.9 2.3-.9 1.3-.5 2.7-1-6.1-2.3-6.3 2.4 1.4.5v3.8h0z" fill="url(#B)"/><linearGradient id="C" gradientUnits="userSpaceOnUse" x1="395.221" y1="148.407" x2="438.366" y2="32.67"><stop offset=".659" stop-color="#008268"/><stop offset=".869" stop-color="#037b65"/></linearGradient><path d="M409.1 112.1c0-.2-.1-.3-.2-.4-.7-.5-1.1-1.3-.9-2.3.2-.8.9-1.4 1.6-1.5 1.3-.2 2.4.8 2.4 2 0 .6-.3 1.2-.7 1.6h0l-.2.2c-.1.1-.2.2-.2.4v3c.5-.5 1.1-1 1.6-1.4 2-1.8 4.2-3.3 6.5-4.7-.9-3.9-4.3-6.8-8.5-6.8h-1.1c-4.1 0-7.6 2.9-8.5 6.8 2.9 1.7 5.6 3.8 8.1 6.1l.1-3h0z" fill="url(#C)"/><linearGradient id="D" gradientUnits="userSpaceOnUse" x1="392.489" y1="147.389" x2="435.633" y2="31.652"><stop offset=".659" stop-color="#008268"/><stop offset=".869" stop-color="#037b65"/></linearGradient><path d="M431.6 109.4l-2.4-20.9-.7-5.9h-37.1l-3.1 26.8c-.1 1 .5 2 1.5 2.4 3.7 1.3 7.2 3.1 10.4 5.3 3 2 5.7 4.4 8.2 7l1.6 1.8 1.6-1.8c2.4-2.6 5.1-5 8.1-6.9 3.2-2.2 6.7-4 10.4-5.3.9-.3 1.5-1.2 1.5-2.1v-.4zm-5.4-1c-.1 0-.1.1-.2.1-1.2.5-2.3 1-3.4 1.6l-.6.3c-.2.1-.4.2-.7.3-.3.2-.6.3-.9.5s-.6.3-.9.5c-3.4 2.1-6.6 4.5-9.5 7.4-2.9-2.8-6.1-5.3-9.6-7.4l-2.1-1.2-.6-.3c-.3-.2-.6-.3-.9-.5s-.6-.3-1-.5c-.6-.3-1.2-.6-1.9-.8-.1 0-.1-.1-.2-.1-.5-.2-.7-.6-.7-1.1l2-17.5.3-2.7h29.1l.2 1.9.5 4.5 1.6 13.9c.2.5 0 1-.5 1.1h0z" fill="url(#D)"/><g fill="#282828"><path d="M12.8 87.8h17.3V73H26v11.2H14c-2.9 0-4.4-1.3-4.4-4v-2.4H5.5v3.1c0 2 .6 3.6 1.8 4.9 1.1 1.3 3 2 5.5 2zm-.3-18.5h4.3V73h-4.3v-3.7zm6 0h4.3V73h-4.3v-3.7zm67.9 7.1c-.7-1.2-1.6-2.1-2.8-2.7-1.2-.7-2.6-1-4.2-1-1.4 0-3.3.2-5.9.6v10.9h-1.8 0-3.9 0-3.9H60h0-3.9-3.9 0-3.9 0-1.8V73.3c-2.6-.4-4.5-.6-5.9-.6-1.6 0-3 .3-4.2 1s-2.2 1.6-2.8 2.7c-.7 1.2-1 2.5-1 3.9 0 1.5.3 2.8.9 3.9s1.5 2 2.6 2.6 2.3.9 3.7.9h.4l1.6-3.6h-1.3c-1.2 0-2.1-.3-2.7-1s-.9-1.6-.9-2.8c0-2.7 1.2-4.1 3.6-4.1.6 0 1.2.1 1.9.2v10.2c0 1-.2 1.7-.6 2.3s-.9 1-1.6 1.3-1.7.5-2.9.7l1.7 3.7c2.3-.4 4.1-1.1 5.4-2.1s2-2.6 2.2-4.9h1.9 0 3.9 0 3.9H60h0 3.9 3.9 0 3.9 0 14c1.2-3.1 1.8-5.6 1.8-7.5-.1-1.2-.5-2.5-1.1-3.7zm-3.9 7.8h-4.9v-7.7l1.9-.2c2.4 0 3.6 1.4 3.6 4.1 0 1.1-.2 2.4-.6 3.8zm38.1-17.4h4.3v3.7h-4.3v-3.7zm37 15.2l-1.6-4.1c-.6-1.6-1.6-2.8-3-3.8-1.4-.9-3-1.4-4.9-1.4-2 0-3.8.5-5.6 1.4l1.5 3.4c1-.5 2.2-.7 3.4-.7 1.1 0 2.1.3 2.9.8s1.4 1.3 1.8 2.2l1.4 3.3c-1.2.5-2.4.8-3.6.9l-4.1.2h-5 0-3.8 0-3.9c-1.2 0-2.1-.3-2.7-.9.4-.9.5-1.9.5-3 0-1.4-.3-2.7-1-3.9-.6-1.1-1.6-2-2.8-2.7s-2.7-1-4.4-1c-3.1 0-6.3 1.1-9.8 3.4V73H109v11.2h-3-3.9 0-3.9c-1.4 0-2.4-.4-3-1.3V73H91v14c0 1-.1 1.7-.4 2.3-.3.5-.7.9-1.2 1.2-.6.2-1.3.4-2.3.6l1.7 3.7c1.9-.2 3.5-.9 4.6-2.2 1.2-1.2 1.8-3.1 1.8-5.7h0c1 .6 2 .9 3 .9h3.9 0 3.9 17.8c2 0 3.7-.7 5.1-2 .6.7 1.3 1.1 2.1 1.5.8.3 1.5.5 2.2.5h3.9 0 3.9 0 5c1.5 0 3.1-.2 4.7-.5 1.6-.4 3.1-.9 4.4-1.6.6.6 1.3 1.1 2.2 1.5s1.6.6 2.3.6l1.6-3.6c-2-.2-3.1-.9-3.6-2.2h0zm-31.8 1.2c-.6.7-1.5 1-2.7 1h-9.9v-4.5c1.5-1.1 3-1.9 4.4-2.5s3-.9 4.7-.9c1.4 0 2.5.4 3.3 1.1s1.2 1.7 1.2 2.9c-.1 1.2-.4 2.2-1 2.9zm52.1-16.4h4.3v3.7h-4.3v-3.7zm-5.9 0h4.3v3.7H172v-3.7zm67.8 20.4c.8.3 1.8.5 3 .5h0 3.9 3.9 0 10.2c1.8 0 3.2-.7 4.3-2 1.1 1.3 2.7 2 4.8 2h6.7v-16h-4.2v12.4h-1.8c-1 0-1.9-.2-2.8-.7-.8-.4-1.3-1.1-1.3-1.9V73h-4.2v7.8c0 1-.3 1.9-.8 2.5-.6.6-1.2.9-2 .9h-1.8V73h-4.2v11.2h-3 0-3.9-3.9c-1.2 0-2-.1-2.6-.3-.5-.2-1-.5-1.5-1l.2-1.5v-9.7h-4.2v9c0 1.1-.3 2-.8 2.6s-1.2.8-2 .8-1.6-.2-2.2-.7c-.7-.5-1-1.1-1-2V73h-4.2v7.8c0 1-.3 1.9-.8 2.5-.6.6-1.2.9-2 .9H220V73h-4.2v11.2h-3-3.8 0-3.9-3.9 0-3.9 0-3.9-3.9 0-3.9-.6c-.8 0-1.3-.2-1.7-.6s-.6-1.2-.6-2.2v-8.1c-2.6-.4-4.5-.6-5.9-.6-1.6 0-3 .3-4.2 1s-2.2 1.6-2.8 2.7c-.7 1.2-1 2.5-1 3.9 0 1.5.3 2.8 1 3.9.6 1.1 1.5 2 2.6 2.6s2.3.9 3.7.9h.6l1.6-3.6h-1.5c-1.2 0-2.1-.3-2.7-1s-.9-1.6-.9-2.8c0-2.7 1.2-4.1 3.6-4.1.6 0 1.2.1 1.9.2V82c0 1.8.4 3.2 1.3 4.2s2.2 1.5 3.9 1.5h1.8 3.9 0 3.9 3.9 0 3.9 0 3.9 3.9 0 3.9 10.2c1.8 0 3.2-.7 4.3-2 .6.7 1.2 1.1 2 1.5.8.3 1.9.5 3.2.5 1 0 2-.2 2.8-.6.9-.4 1.6-1 2.1-1.7.7.9 1.4 1.5 2.2 1.8h0zm51.3-18.7h-3.4c-.2-.2-.2-.5-.2-.9s.1-.6.3-.8.4-.3.7-.3c.2 0 .5.1.8.2l.7-2.3c-.7-.2-1.3-.3-1.8-.3-1 0-1.8.3-2.5.9-.6.6-.9 1.3-.9 2.3 0 .4.1.8.3 1.2h-1.5l-.5 2.5h8v-2.5h0zm31.4 11.8c0-1.4-.3-2.7-1-3.9s-1.6-2.1-2.8-2.7c-1.2-.7-2.6-1-4.2-1-1.4 0-3.3.2-5.9.6v10.9h-1.8-10.5c-1.4 0-2.4-.4-3-1.3v-9.6c-2.6-.4-4.5-.6-5.9-.6-1.6 0-3 .3-4.2 1s-2.2 1.6-2.8 2.7c-.7 1.2-1 2.5-1 3.9 0 1.5.3 2.8.9 3.9s1.5 2 2.6 2.6 2.3.9 3.7.9h.4l1.6-3.6h-1.3c-1.2 0-2.1-.3-2.7-1s-.9-1.6-.9-2.8c0-2.7 1.2-4.1 3.6-4.1.6 0 1.2.1 1.9.2v10.2c0 1-.2 1.7-.6 2.3s-.9 1-1.6 1.3-1.7.5-2.9.7l1.7 3.7c1.6-.3 3-.7 4.1-1.2s2-1.4 2.6-2.5 1-2.6 1-4.4v.2c1 .6 2 .9 2.9.9H307h14c.9-3 1.5-5.4 1.5-7.3zm-4.9 3.9h-4.9v-7.7l1.9-.2c2.4 0 3.6 1.4 3.6 4.1 0 1.1-.2 2.4-.6 3.8zM13.4 132.5H15v11.9h-1.6v-5.6H7.2v5.6H5.6v-11.9h1.6v4.9h6.2v-4.9zm9.6 11.9v-1.3h0c-.6 1-1.4 1.5-2.8 1.5-1.3 0-2.8-.6-2.8-2.7v-6.2h1.5v5.8c0 1.4.7 1.9 1.7 1.9 1.8 0 2.4-1.6 2.4-2.9v-4.8h1.5v8.7H23z"/><use xlink:href="#F"/><path d="M40.3 138.4c.1-2.1 1.4-2.9 3.6-2.9.7 0 3.2.2 3.2 2.4v5c0 .4.2.5.5.5.1 0 .3 0 .5-.1v1.1c-.2.1-.5.2-.8.2-1.3 0-1.5-.7-1.5-1.3-.6.6-1.4 1.4-3.1 1.4-1.6 0-2.7-1-2.7-2.5 0-.7.2-2.4 2.6-2.7l2.4-.3c.3 0 .8-.2.8-1 0-.9-.7-1.4-2-1.4-1.7 0-1.9 1-2 1.7l-1.5-.1h0zm5.3 1.6c-.2.2-.6.3-2.4.5-.7.1-1.9.3-1.9 1.4 0 .9.5 1.5 1.6 1.5 1.4 0 2.7-.9 2.7-2 0 0 0-1.4 0-1.4z"/><use xlink:href="#G"/><path d="M81 141.7c0 .4-.4 1.6-1.5 2.4-.4.3-1 .6-2.4.6-2.4 0-3.9-1.8-3.9-4.3 0-2.7 1.3-4.8 4.2-4.8 2.5 0 3.7 2 3.7 5.1h-6.3c0 1.8.8 2.9 2.5 2.9 1.4 0 2.2-1.1 2.2-1.7H81v-.2zm-1.4-2.3c-.1-1.3-.6-2.6-2.4-2.6-1.3 0-2.4 1.2-2.4 2.6h4.8zm8.3-3.6h1.6l-3.3 8.7h-1.6l-3.2-8.7h1.7l2.3 7.1h0l2.5-7.1z"/><use xlink:href="#H"/><path d="M101 144.4h-1.5v-11.9h1.5v11.9zm5.7-8.9c2.8 0 4 2.3 4 4.6 0 2.2-1.3 4.6-4 4.6-2.8 0-4-2.3-4-4.6 0-2.2 1.2-4.6 4-4.6zm0 7.9c2.1 0 2.5-2.2 2.5-3.3s-.4-3.3-2.5-3.3-2.5 2.2-2.5 3.3.4 3.3 2.5 3.3zm5.6-7.6h1.4v1.2h0c.3-.5 1-1.5 2.6-1.5 2.3 0 3.6 1.9 3.6 4.3 0 2.1-.9 4.8-3.8 4.8-1.2 0-1.9-.5-2.3-1.2h0v4.3h-1.5v-11.9h0zm3.7 7.6c1.6 0 2.3-1.4 2.3-3.3 0-1.1-.1-3.2-2.4-3.2-2.1 0-2.3 2.3-2.3 3.7.1 2.2 1.5 2.8 2.4 2.8z"/><use xlink:href="#F" x="95.1"/><use xlink:href="#H" x="45.2"/><use xlink:href="#G" x="95.1"/><path d="M155.6 137v5.6c0 .7.6.7.9.7h.5v1.1c-.5 0-.9.1-1.1.1-1.4 0-1.8-.8-1.8-1.9V137H153v-1.2h1.2v-2.4h1.5v2.4h1.4v1.2h-1.5 0zm50.9 8.2c-.5 0-.9.4-.9.9s.4.9.9.9.9-.4.9-.9-.4-.9-.9-.9zm-2.4 0c-.5 0-.9.4-.9.9s.4.9.9.9.9-.4.9-.9c-.1-.5-.4-.9-.9-.9zm1.9-9.2v6.5h-28.5v-6.1s-1.5-.6-3.3-.6c-2.8 0-4.1 1.9-4.1 4.1 0 2.3 1.1 3.8 4.3 3.8h33.2V136H206zm-30 6.5h-1.4c-2.1 0-3-.9-3-2.8 0-1.6.9-2.7 2.4-2.7 1.2 0 2 .4 2 .4v5.1zm49.7-9.8c-.5 0-.9.4-.9.9s.4.9.9.9.9-.4.9-.9-.4-.9-.9-.9zm1.2-1.9c-.5 0-.8.4-.8.9s.4.8.8.8c.5 0 .8-.4.8-.8 0-.5-.3-.9-.8-.9zm1.2 1.9c-.5 0-.9.4-.9.9s.4.9.9.9.9-.4.9-.9-.4-.9-.9-.9zm9.6 12.5c-.5 0-.9.4-.9.9s.4.9.9.9.9-.4.9-.9-.4-.9-.9-.9zm1.8-9.2v7.7h-10c-1.6 0-2.4-.4-2.8-1.3-.3.9-1.2 1.4-2.3 1.4-1.3 0-2.1-.6-2.3-1.4-.3.8-1 1.3-2.2 1.3h-7.1v.1c0 2.3-.9 4.1-3.8 4.1-.6 0-1.2-.1-1.7-.2l.2-1.2c.5.2 1 .3 1.6.3 1.4 0 2.2-.7 2.2-2.8v-8h1.5v6.5h7.1c1.2 0 1.7-.5 1.7-2.3V137h1.5v3.4c0 1.4.3 2.3 1.5 2.3s1.5-.9 1.5-2.3v-4h1.5v4c0 1.7.4 2.2 2.2 2.2h.8c.1-.7.1-1.7.1-2.3 0-1.8-.2-3.3-.5-4.5l1.5-.3c.3 1.2.6 2.9.6 4.7l-.1 2.4h5.9V136h1.4 0zm-67.8-2.4c0-.5.4-.9.9-.9s.9.4.9.9-.4.9-.9.9-.9-.4-.9-.9zm2.4 0c0-.5.4-.9.9-.9s.9.4.9.9-.4.9-.9.9-.9-.4-.9-.9zm80.8-.9c-.5 0-.9.4-.9.9s.4.9.9.9.9-.4.9-.9-.4-.9-.9-.9zm-2.4 0c-.5 0-.9.4-.9.9s.4.9.9.9.9-.4.9-.9-.4-.9-.9-.9zm34.6 12.5c-.5 0-.9.4-.9.9s.4.9.9.9.9-.4.9-.9c-.1-.5-.5-.9-.9-.9zm-2.5 0c-.5 0-.9.4-.9.9s.4.9.9.9.9-.4.9-.9-.4-.9-.9-.9zm25.1-12.8c-.5 0-.9.4-.9.9s.4.9.9.9.9-.4.9-.9-.4-.9-.9-.9zm11.9.3c-.5 0-.9.4-.9.9s.4.9.9.9.9-.4.9-.9-.4-.9-.9-.9zm-2.4 0c-.5 0-.9.4-.9.9s.4.9.9.9.9-.4.9-.9-.4-.9-.9-.9zm.7 3.3v6.5h-9.5V136h-1.5v6.5h-5.7v-2.8c0-2.5-1.1-3.9-3.6-3.9-2.6 0-4 1.9-4 4.3 0 1.9-.6 2.4-1.4 2.4H288V136h-1.5v6.5h-29.4v-6.1s-1.5-.6-3.3-.6c-2.8 0-4.1 1.9-4.1 4.1 0 2.3 1.1 3.8 4.3 3.8h40.1c1.1 0 1.8-.5 2.2-1.4.5.9 1.5 1.4 3.4 1.4h21.7V136h-1.5 0zm-64.2 6.5h-1.4c-2.1 0-3-.9-3-2.8 0-1.6.9-2.7 2.4-2.7 1.2 0 2 .4 2 .4v5.1zm46.1 0h-1.9c-2 0-2.8-.8-2.8-2.6s.9-2.9 2.4-2.9 2.2.8 2.2 2.9l.1 2.6h0zm-231.7-8.9c.7.4 1.1 1.1 1.3 1.9s.4 1.8.4 2.9c0 1.4-.2 2.6-.5 3.5s-.8 1.5-1.4 2c-.7.4-1.5.6-2.6.6h-4.1v-11.6h4.1c1.2 0 2.1.3 2.8.7h0zm-.7 8.4c.4-.8.7-1.9.7-3.5 0-1-.1-1.8-.3-2.4s-.5-1.1-.9-1.3c-.4-.3-1-.4-1.7-.4h-2.5v8.8h2.5c1.1-.1 1.8-.4 2.2-1.2h0zm-48.3-40.3v20.6h-4.2v-8.6H9.2v8.6H5v-20.6h4.2v8.4h7.7v-8.4h4.2 0z"/><use xlink:href="#I"/><path d="M41.3 120.8c-.9-1.3-1.3-3.2-1.3-5.8 0-2.8.5-4.9 1.5-6.2s2.5-2 4.6-2c.7 0 1.9.1 3.4.4v-6.1h4.1v21.3h-4v-.6c-.8.4-1.5.6-2.1.8-.6.1-1.2.2-1.8.2-2 0-3.5-.7-4.4-2zm7.8-2.1l.4-.1v-8c-1.1-.2-2-.3-2.7-.3-1 0-1.7.3-2.1 1s-.6 1.9-.6 3.5c0 1.5.2 2.6.6 3.2s1 1 1.9 1c.7.1 1.6 0 2.5-.3zm8.3-17.6h4.1v6.8c.8-.4 1.5-.7 2-.8.6-.2 1.2-.3 1.9-.3 1.9 0 3.2.6 4 1.8s1.2 3 1.2 5.5v8.2h-4.1v-8.1c0-1.4-.2-2.3-.5-2.9s-1-.9-1.9-.9c-.7 0-1.5.1-2.3.4l-.4.1v11.4h-4.1v-21.2h.1zm16.8 6.1h4v1.6c1.7-1 3.4-1.7 4.9-2v4.1c-1.5.3-2.9.7-4.2 1.1l-.6.2v10.2h-4.1c0 0 0-15.2 0-15.2z"/><use xlink:href="#I" x="60.2"/><path d="M101 107.2h4v.9c.6-.4 1.3-.7 2-.9.6-.2 1.1-.3 1.7-.3.7 0 1.4.1 2 .3.7.2 1.2.6 1.6 1.1 1-.5 1.8-.8 2.7-1.1.9-.2 1.7-.3 2.6-.3 1.9 0 3.2.6 4 1.7.8 1.2 1.2 3 1.2 5.6v8.2h-4.1v-8.1c0-1.4-.2-2.3-.5-2.9s-.9-.9-1.7-.9c-.6 0-1.4.1-2.3.4l-.5.2.1 3.5v7.9h-4.1v-7.8c0-1.1-.1-1.9-.2-2.5s-.3-1-.6-1.2c-.3-.3-.8-.4-1.4-.4-.8 0-1.5.1-2.2.4h-.3v11.4h-4v-15.2z"/><use xlink:href="#J"/><use xlink:href="#K"/><path d="M161.8 122.2c-.6-.4-1.1-1-1.4-1.8s-.4-2-.4-3.4v-6.3h-1.8v-3.5h1.8V103h4.1v4.2h3.7v3.5H164v6.2c0 .8.1 1.4.2 1.7.1.4.5.5 1.1.5l2.3-.1.2 3.2-1.9.4c-.5.1-.9.1-1.4.1-1.1.1-2.1-.1-2.7-.5h0zm19.8-16.8v6.1h7.3v3.6h-7.3v7.3h-4.2v-20.6h13.2v3.6h-9zm12.1 15.3c-1.2-1.4-1.8-3.4-1.8-5.9s.6-4.5 1.8-5.9 2.9-2.1 5.2-2.1 4 .7 5.2 2.1 1.8 3.3 1.8 5.9-.6 4.5-1.8 5.9-2.9 2.1-5.2 2.1-4-.7-5.2-2.1zm7.3-2.5c.5-.7.7-1.9.7-3.5s-.2-2.7-.7-3.4-1.2-1-2.2-1-1.7.3-2.2 1-.7 1.8-.7 3.4.2 2.8.7 3.5 1.2 1.1 2.2 1.1 1.8-.4 2.2-1.1z"/><use xlink:href="#K" x="66.3"/><use xlink:href="#L"/><path d="M243 120.8c-.9-1.3-1.3-3.2-1.3-5.8 0-2.8.5-4.9 1.5-6.2s2.5-2 4.6-2c.7 0 1.9.1 3.4.4v-6.1h4.1v21.3h-4v-.6c-.8.4-1.5.6-2.1.8-.6.1-1.2.2-1.8.2-2 0-3.5-.7-4.4-2zm7.8-2.1l.4-.1v-8c-1.1-.2-2-.3-2.7-.3-1 0-1.7.3-2.1 1s-.6 1.9-.6 3.5c0 1.5.2 2.6.6 3.2s1 1 1.9 1c.8.1 1.6 0 2.5-.3h0z"/><use xlink:href="#I" x="233.9"/><path d="M277 122.2c-.6-.4-1.1-1-1.4-1.8s-.4-2-.4-3.4v-6.3h-1.8v-3.5h1.8V103h4.1v4.2h3.7v3.5h-3.7v6.2c0 .8.1 1.4.2 1.7.1.4.5.5 1.1.5l2.3-.1.2 3.2-1.9.4c-.5.1-.9.1-1.4.1-1.2.1-2.1-.1-2.8-.5h0zm8.7-21h4.1v4.1h-4.1v-4.1zm0 6h4.1v15.2h-4.1v-15.2z"/><use xlink:href="#J" x="166.9"/><use xlink:href="#L" x="83.9"/></g><defs ><path id="F" d="M26.5 135.8h1.4v1.2h0c.3-.5 1.1-1.5 2.6-1.5 1.6 0 2.1.9 2.3 1.4.7-.8 1.3-1.4 2.7-1.4.9 0 2.7.5 2.7 2.9v6h-1.5v-5.6c0-1.2-.4-2-1.6-2s-2 1.2-2 2.3v5.3h-1.5v-6c0-.7-.3-1.6-1.4-1.6-.8 0-2.3.5-2.3 2.9v4.7h-1.5l.1-8.6h0z"/><path id="G" d="M56.6 144.4h-1.5v-5.3c0-1.5-.4-2.3-1.9-2.3-.8 0-2.3.5-2.3 2.9v4.7h-1.5v-8.7h1.4v1.2h0c.3-.5 1.1-1.5 2.6-1.5 1.3 0 3 .5 3 3v6h.2z"/><path id="H" d="M97.6 141.7c0 .4-.4 1.6-1.5 2.4-.4.3-1 .6-2.4.6-2.4 0-3.9-1.8-3.9-4.3 0-2.7 1.3-4.8 4.2-4.8 2.5 0 3.7 2 3.7 5.1h-6.3c0 1.8.8 2.9 2.5 2.9 1.4 0 2.2-1.1 2.2-1.7h1.5v-.2zm-1.4-2.3c-.1-1.3-.6-2.6-2.4-2.6-1.3 0-2.4 1.2-2.4 2.6h4.8z"/><path id="I" d="M24.2 117.8c0-1.6.4-2.7 1.3-3.4.8-.7 2.2-1.1 4.1-1.2l3.2-.2v-.9c0-.6-.1-1-.4-1.3-.3-.2-.7-.4-1.4-.4l-2.8.1-2.9.2-.1-2.8c2.2-.6 4.2-.9 6.2-.9 1.9 0 3.3.4 4.2 1.2s1.3 2.1 1.3 3.9v6.3c0 .5.1.9.3 1 .1.2.4.3.7.4l-.1 3.1c-1.1 0-1.9-.1-2.5-.2s-1.2-.4-1.8-.9c-1.5.7-3 1.1-4.5 1.1-3.2-.1-4.8-1.8-4.8-5.1zm8.1 1.3l.5-.1v-3.2l-2.8.2c-1.1.1-1.7.7-1.7 1.8s.5 1.7 1.5 1.7l2.5-.4z"/><path id="J" d="M127.4 120.7c-1.2-1.4-1.8-3.4-1.8-5.9s.6-4.5 1.8-5.9 2.9-2.1 5.2-2.1 4 .7 5.2 2.1 1.8 3.3 1.8 5.9-.6 4.5-1.8 5.9-2.9 2.1-5.2 2.1-4-.7-5.2-2.1zm7.4-2.5c.5-.7.7-1.9.7-3.5s-.2-2.7-.7-3.4-1.2-1-2.2-1-1.7.3-2.2 1-.7 1.8-.7 3.4.2 2.8.7 3.5 1.2 1.1 2.2 1.1 1.7-.4 2.2-1.1z"/><path id="K" d="M144.4 122c-.7-.5-1.3-1.3-1.6-2.4s-.5-2.5-.5-4.4v-8h4.1v8c0 1.1.1 1.9.2 2.4s.3.9.6 1.1.8.3 1.4.3c.5 0 .9 0 1.3-.1l1.6-.4v-11.4h4.1v15.2h-4v-.9c-.9.5-1.6.8-2.2 1s-1.2.3-1.9.3c-1.3.1-2.3-.2-3.1-.7h0z"/><path id="L" d="M225.6 107.2h4v.9c.8-.4 1.5-.8 2-.9.6-.2 1.2-.3 1.9-.3 1.9 0 3.2.6 4 1.8s1.2 3 1.2 5.5v8.2h-4.1v-8.1c0-1.4-.2-2.4-.5-2.9-.3-.6-1-.9-1.9-.9-.7 0-1.4.1-2.3.4l-.4.1v11.4h-4.1v-15.2h.2z"/></defs></svg>