<svg xmlns="http://www.w3.org/2000/svg" xmlns:xlink="http://www.w3.org/1999/xlink" viewBox="0 0 200 66" xmlns:v="https://vecta.io/nano"><linearGradient id="A" gradientUnits="userSpaceOnUse" x1="180.014" y1="8.261" x2="208.594" y2="26.872"><stop offset=".065" stop-color="#00b180"/><stop offset=".479" stop-color="#009c72"/></linearGradient><path d="M189.2 14.93V8.92l-.97.37v5.66c-1.83.53-.32 3.76-.32 3.76s.33.21.88.21c.09 0 .17-1.29.17-1.29l.24 1.25c.24-.04.49-.14.76-.29-.01 0 1.3-3.28-.76-3.66z" fill="url(#A)"/><linearGradient id="B" gradientUnits="userSpaceOnUse" x1="139.988" y1="-7.253" x2="247.892" y2="63.01"><stop offset=".065" stop-color="#00b180"/><stop offset=".669" stop-color="#009068"/></linearGradient><path d="M185.25 10l-3.9 1.5-5.84 2.26a3.78 3.78 0 0 1-2.73-.01l-10.26-4.07v2.5l-.01 7.27c0 .47.51.78.92.54a21.6 21.6 0 0 1 10.49-2.71 21.59 21.59 0 0 1 10.54 2.73c.42.23.92-.06.92-.54l.01-9.08v-.44l-.14.05z" fill="url(#B)"/><linearGradient id="C" gradientUnits="userSpaceOnUse" x1="127.572" y1="-21.808" x2="272.45" y2="72.53"><stop offset=".035" stop-color="#008e6e"/></linearGradient><path d="M185.25 4.53v5.87l-4 1.54-7.16 2.77-.05.02-11.52-2.56v-2.06h-.01V4.28L173.84.02z" opacity=".94" fill="url(#C)"/><linearGradient id="D" gradientUnits="userSpaceOnUse" x1="129.864" y1="-21.386" x2="270.21" y2="70.003"><stop offset=".065" stop-color="#00b180"/></linearGradient><path d="M192.89 7.5l-3.69 1.42-.97.37-2.84 1.09-4.03 1.56-7.22 2.79-.05-.02-11.57-4.6h-.01l-7.56-3 7.56-2.83L173.84.02l.05-.02z" fill="url(#D)"/><path d="M168.48 58.99l-.15.48.31.53.15.29.03.06.22.4.06.13c.03.04.06.11.09.17a2.75 2.75 0 0 1 .14.3c.03.05.06.12.09.18l.39.88.43 1.1.15.41.26.8.08.27.16.55.06.15.03.05c.12.17.3.27.49.27h1.19 0 3.44a.58.58 0 0 0 .48-.25l.11-.24.14-.51.09-.29.26-.79.14-.41.43-1.1.38-.87.12-.24a4.25 4.25 0 0 1 .12-.26l.11-.22.02-.04.23-.43.03-.06.15-.27.3-.52.6-.97.21-.32.14-.22.18-.26.1-.13h0l.31-.42.29-.38.41-.52.09-.11.59-.68.23-.26a1.06 1.06 0 0 1 .1-.12l.08-.09.41-.43a2.07 2.07 0 0 0 .21-.21l.2-.2.33-.31.04-.04c.05-.05.11-.1.18-.16.79-.74 1.69-1.45 2.73-2.17l.3-.2.3-.21.52-.32.48-.29.56-.32.25-.13c.05-.03.11-.06.19-.1l.7-.35.27-.14 1.42-.6 1.34-.49c.05-.02.17-.06.29-.09l1.4-.4 1.24-.27 1.45-.25.32-.04.31-.04c.01 0 .04-.01.1-.01l.26-.03.17-.02c.4-.1.73-.47.82-.95.01-.03.02-.08.02-.14v-.1-.4l-.01-.69-.02-.51v-.11c0-.08 0-.12-.01-.16 0-.1-.01-.15-.02-.24l-.02-.26-.26.02c-.7.04-1.44.12-2.35.26l-.69.1-.21.03-.63.13c-1.41.29-2.83.7-4.22 1.21l-.29.11-.24.09-.84.35-2.55 1.26-.63.36c-.06.03-.1.06-.14.09l-.15.1-.27.17c-1.52.95-2.94 2.01-4.21 3.17l-.14.13-.11.11-.18.17-.08.08c-.1.09-.2.19-.29.29l-.51.51-.49.52-.1.11c-.58.64-2.27 2.84-2.34 2.94-1 1.44-1.85 2.92-2.51 4.39-.04.08-.07.16-.11.26l-.33.78-.11.29-.37 1.01h-.27l-.37-1.01-.45-1.08-.11-.25c-.67-1.48-1.51-2.96-2.51-4.39l-.11-.15-.12-.17-.21-.31v.01c-.43.96-.94 2.41-1.29 3.65z" fill="#cc9638"/><path d="M179.74 50.87c-.03-.04-.04-.09-.05-.11-.7-1.39-1.58-2.79-2.59-4.12l-.13-.17-.27-.35-.18-.21-.49.47-.72.69-.28.3-.87.95.3.35.06.07.16.19.2.27a27.62 27.62 0 0 1 2.94 4.73c.01.03.03.06.05.1.02.03.04.08.06.13.02.04.03.06.04.1l1.34-1.64.1-.1.5-.53.23-.23-.18-.4-.22-.49z" fill="#077b65"/><path d="M166.69 52.2l.05-.11.09-.2h0l-.35-.34-.08-.08-.17-.16-.1-.1-.14-.13a29.53 29.53 0 0 0-4.21-3.17l-.27-.17-.14-.09c-.05-.04-.09-.06-.14-.09l-.17-.1c-.01.02-.02.04-.02.06-.02.04-.03.08-.05.13a31.9 31.9 0 0 0-1 3l-.01.04-.04.14.38.24.31.21.3.2c1.05.72 1.95 1.44 2.77 2.2.04.03.1.09.16.14l.04.04.32.31.2.21.2.19.42.44.08.09a.8.8 0 0 1 .13.16l.06.06a1.74 1.74 0 0 1 .13.15l.11.13c.3-1.08.7-2.31 1.08-3.23.01-.05.04-.11.06-.17zm-9.18-6.4l.01-.04.01-.04-.34-.14-.25-.09-1.04-.38-2.68-.77-1.44-.32-.17-.03-.11-.02-.01.03-.02.09-.03.16c-.22 1.1-.35 2.4-.41 3.08l-.01.06v.04l.49.08c.07.01.13.03.19.04l1.21.26 1.43.41c.1.03.22.07.31.11l1.29.47.75.3c.19-1 .47-2.17.76-3.1l.06-.2z" fill="#bb862e"/><linearGradient id="E" gradientUnits="userSpaceOnUse" x1="157.524" y1="58.934" x2="175.128" y2="5.404"><stop offset=".035" stop-color="#008264"/><stop offset=".883" stop-color="#00b481"/></linearGradient><path d="M151.02 43.63l.04-.19.02-.07.14-.62a27.51 27.51 0 0 1 1.12-3.43l.15-.36.13-.32c.01-.02.01-.03.02-.05l.12-.27.12-.27.76-1.52.16-.29.16-.28.42-.72.08-.13.13-.21.23-.36a26.88 26.88 0 0 1 2.59-3.37l.09-.1.28-.3.23-.24.06-.06.07-.07.25-.24 1.29-1.21.41-.37.21-.17.22-.18.54-.43.78-.59.28-.2.34-.24.19-.13.05-.03.42-.26.2-.12.2-.12.89-.53.94-.51.98-.48 1.04-.46 1.09-.43c1-.37 2.03-.69 3.07-.94l.62-.14.44-.1.39-.08.65-.12.2-.03c1.48-.23 2.98-.36 4.46-.36 2.01 0 4.01.21 5.97.63-.95-.43-1.94-.81-2.94-1.12h-.01c-.03-.01-.05-.01-.07-.02l-.09-.02-.95-.28h-.02l-.38-.09-.75-.17-.72-.14-.43-.07-.53-.09-.48-.06-.21-.03-.45-.05-.07-.01-1.19-.08-.87-.02c-.1 0-.2-.01-.3-.01l-1.28.03a2.54 2.54 0 0 1-.31.02l-.96.08c-.01 0-.08.01-.16.02l-.09.03-1.04.13c-.02.01-.09.02-.16.03-1.68.26-3.32.71-4.91 1.31l-1.08.44-1.02.47-.57.28-.4.22-.65.36-.27.16-.87.54-.84.56-.79.58-.75.6-.18.15-.54.47-.52.48-.95.95-1.73 2.01-.28.38-.26.35c-.04.05-.07.09-.1.14l-.23.32-.17.25-.23.35-.75 1.25-.26.47-.1.21-.13.25-.89 1.93-.02.06-.11.3c-.02.05-.04.09-.05.14l-.09.24c-.01.02-.01.04-.02.06l-.52 1.57-.08.28-.18.63-.05.19-.03.13c-.04.13-.05.21-.07.29l-.02.09c-.18.81-.32 1.65-.42 2.49l-.03.21-.06.61-.02.27-.02.26-.02.32c0 .03 0 .05-.01.08 0 0 0 .06-.01.11l-.01.31-.02 1.09v.49c0 .44.28.81.69.91h.07l.31.03c.04 0 .07.01.1.01l.28.03.26.03h.03l.24.03c.01-.02.01-.04.02-.06l.25-2.13.17-1 .03-.12.03-.14.07-.3z" fill="url(#E)"/><linearGradient id="F" gradientUnits="userSpaceOnUse" x1="168.101" y1="62.412" x2="185.705" y2="8.882"><stop offset=".035" stop-color="#008264"/><stop offset=".883" stop-color="#00b481"/></linearGradient><path d="M160.57 47.19l.09-.23.01-.03v-.01l.01-.03.09-.22.12-.29.12-.26c.65-1.42 1.48-2.84 2.44-4.22l.22-.32.08-.11a1.43 1.43 0 0 1 .11-.15l.1-.13.17-.22c.06-.07.11-.15.17-.22.63-.81 1.32-1.6 2.06-2.35l.21-.2.21-.2.42-.41.08-.08c.07-.07.13-.13.2-.18l.25-.24c1.24-1.1 2.57-2.08 3.98-2.93l.89-.53c.01-.01.03-.02.04-.02l.52-.29c.01-.01.02-.01.04-.02l.17-.09.13-.06c.02-.01.03-.02.05-.02l.26-.13.74-.35 1.04-.46 1.1-.43.83-.29.32-.11c.01 0 .02-.01.03-.01a4.83 4.83 0 0 1 .36-.1l.84-.25.2-.06.6-.16.33-.08.17-.03 1.41-.27c1.49-.25 3-.37 4.51-.37h.06l1.46.04.51.03h.07l.09.01.33.03a.22.22 0 0 1 .08.01l.35.04c1.57.16 3.13.44 4.65.87-1.87-.93-3.88-1.62-5.94-2.08l-.53-.11-.55-.1-2.01-.28-.29-.03-.41-.04-.3-.02-.34-.02-1.18-.04c-1.35 0-2.7.11-4.03.33l-1.43.27-1.31.32-.55.15-.06.02-.37.11c-.02.01-.04.01-.05.02-.06.02-.13.04-.19.07l-.16.06-.16.06-.23.09-.58.22-1.08.44-1.02.47-.97.49-.06.03-.33.17-.32.19-.21.13-.77.46-.11.07-.24.16-.2.13-.18.12c-1.44 1-2.81 2.17-4.06 3.48l-.18.19-.21.23-.12.13c-.03.03-.05.06-.08.1-.07.07-.13.15-.19.23a24.36 24.36 0 0 0-1.73 2.24l-.15.23-.15.23-.3.46-.11.18-.24.41c-.71 1.21-1.31 2.48-1.79 3.77 0 .01-.1.27-.1.27-.01.04-.07.2-.12.35l-.09.26-.08.26c-.01.04-.03.08-.04.12-.01.05-.03.09-.04.14l-.33 1.19-.07.26-.37 1.69c0 .02-.01.03-.01.05h.01l.22.1c.01.01.02.01.03.02l.3.15.24.11.63.33.05.03.2.11.34.19.24.14c.01 0 .02-.02.02-.03.26-.95.65-2.13 1.02-3.06l.1-.29z" fill="url(#F)"/><path d="M199.02 43.06l-.02-.17-.02-.13-.03-.21-.42-2.49-.02-.07-.07-.28-.03-.13-.05-.21-.18-.64-1.57-.11c-.08 0-.16 0-.24-.01l-1.2-.01h-.18c.01.01.01.02.02.04l.13.32.15.36c.44 1.09.81 2.24 1.11 3.4l.15.64.05-.01 2.39-.26h.03v-.03zm-9.16-12.26l.28.31.09.1a27.63 27.63 0 0 1 2.59 3.37l.23.36.12.19.1.15.42.72h.03c.07.01.15.01.22.02l.11.01.32.04.43.05.73.1c.04.01.08.01.12.02l1.83.35c-.02-.04-.03-.08-.05-.12l-.12-.31-.03-.07-.89-1.92-.12-.23-.12-.23c-.08-.16-.17-.31-.26-.46l-.75-1.25c-1.7-.58-3.48-.97-5.28-1.2zm-6.97-7.92l-.32-.05-1.3-.17c-.07-.01-.15-.01-.22-.02l-1.11-.09-.35-.02-1.32-.03h0l-1.32.04-.2.01-1.17.09c-.03 0-.06.01-.08.01l.62.14c2.91.71 5.68 1.88 8.21 3.47l.2.13.41.26.25.17.34.24 1.59 1.21.42.08.54.12c.06.01.11.03.17.04l1.17.29.36.1 1.17.37.5.17 1.06.41.54.23.7.32.39.18v.01c.01 0 .02.01.02.01l-.28-.38a25.48 25.48 0 0 0-1.73-2.01l-.96-.95-1.06-.94c-1.16-.98-2.41-1.84-3.71-2.59a25.51 25.51 0 0 0-2.54-.64c-.32-.09-.65-.16-.99-.21zm-9.67 19.66l-.11-.1-.28-.22a25.42 25.42 0 0 0-4.7-3.01l-.64-.31-.59-.26h0l-.87.92-.25.27-.56.67-.41.5.13.06.34.16.11.05c.07.03.14.06.2.1 1.69.89 3.29 1.95 4.76 3.15l.29.23.2.18.06.06c.05.04.1.09.15.14l1.15-1.25.21-.2 1-.96c-.03-.03-.06-.06-.1-.09l-.09-.09zm-11.48-5.56a26.76 26.76 0 0 0-5.46-.56l-.34.01c-.1.01-.21.01-.3.01l-.26.01-.2.01-.91.06c0 .01-.01.01-.01.02l-.72 1.4c-.03.06-.06.11-.08.17l.56.02a1.34 1.34 0 0 1 .2.01 29.29 29.29 0 0 1 5.27.88l.14.03.21.05.11.03.23.06.45.14c0-.01.01-.01.01-.02.03-.04.05-.08.08-.12.13-.2.29-.39.43-.59l.34-.46.43-.54.4-.49c-.01 0-.02 0-.02-.01a1.49 1.49 0 0 0-.18-.04l-.38-.08zm18.15-4.07c-.05-.04-.11-.07-.16-.11l-.22-.15-.35-.24-.98-.59-.73.24-.43.15-.53.2-.38.15-.57.23-.34.15-.58.27-.19.09.55.3a28.53 28.53 0 0 1 4.91 3.48l.27.25c.05.04.11.1.18.16l.09.09.42.41.05-.02.16-.07 1.14-.42.44-.16 1.12-.34.59-.18-.22-.24-.18-.2c-1.25-1.29-2.62-2.46-4.06-3.45zm-12.16-2.12l.6.16 1.04.3c.04-.03.08-.05.13-.08l.2-.11.13-.07c.03-.02.06-.03.1-.05l.66-.34.36-.18.43-.2.63-.28.15-.06.85-.34-.37-.11-.06-.02a26.05 26.05 0 0 0-7.32-1.08l-1.17.04-.34.02-.31.02-.38.03-.33.03-2.01.28-.72.61h0l-.38.34-.32.3c-.03.03-.06.06-.1.09h.07l.51-.03 1.45-.04h.06c2.05 0 4.1.23 6.11.68l.33.09zm21.57 14.27l-.06-.18c-.02-.04-.03-.09-.04-.11-.48-1.27-1.08-2.54-1.79-3.76l-.24-.4-.11-.18-.3-.46-1.1.4-.51.19-.78.33-.71.31.1.13.11.15.08.11.22.32c.96 1.38 1.79 2.8 2.44 4.22l.23.53 2.51-1.24.07-.03-.04-.13c-.03-.06-.05-.12-.08-.2z" fill="#077b65"/><linearGradient id="G" gradientUnits="userSpaceOnUse" x1="176.051" y1="65.026" x2="193.655" y2="11.496"><stop offset=".035" stop-color="#008264"/><stop offset=".883" stop-color="#00b481"/></linearGradient><path d="M195.65 38.07l1.94.08.38.03c-.01-.02-.01-.03-.02-.05l-.02-.07-.2-.61c-.03-.1-.06-.19-.1-.28-1-.24-2.04-.42-3.1-.54l-.54-.06-.32-.03-.32-.02-.91-.06-.2-.01h-.06c-.06 0-.12 0-.17-.01-.12 0-.22 0-.33-.01l-.35-.01-1.12.03-1.73.13-1.55.22-1.06.19-.35.08h-.02l-.13.03c-.03 0-.04.01-.06.01a1.49 1.49 0 0 1-.18.04l-.11.03c-.1.02-.19.05-.29.08l-.53.15-1.24.37-1.15.41-.54.21-.27.12-.27.12-.6.26-.64.31c-1.68.84-3.26 1.85-4.69 3.01l-.29.23-.07.07-.11.1-.11.09-.2.18-.2.18c-.85.76-1.64 1.56-2.37 2.41l-.17.21-.17.21-.18.21-.27.35-.13.18c-1.01 1.33-1.88 2.73-2.6 4.15 0 0-.02.04-.04.1l-.35.76a.61.61 0 0 0-.05.12l-.11.27-.12.27-.03.06h0l-.09.21-.47 1.25c-.01.04-.03.09-.04.13l-.65 2.15c0 .01 0 .01-.01.02l.01.01.21.25.01.01.11.14 1.4 1.89c.03.04.05.08.08.12l.19.29.15-.51.25-.78.3-.87.29-.8.18-.45.14-.35.12-.27.06-.14.07-.15.02-.06.09-.19.04-.09.07-.16.05-.09c.81-1.66 1.8-3.24 2.92-4.69l.23-.31c.03-.04.09-.11.15-.18l.06-.08c.09-.12.2-.23.29-.34l.18-.21.18-.21c.73-.84 1.53-1.65 2.37-2.41l.2-.18.2-.18c.06-.05.11-.1.16-.15l.05-.05.19-.18.3-.24c1.47-1.2 3.07-2.26 4.76-3.15l.2-.1.11-.05.34-.17.13-.06.25-.12.25-.12.88-.38 1.09-.45 1.14-.42c.01 0 .02-.01.03-.01l.27-.08.27-.08.45-.14.21-.05c.06-.01.1-.02.13-.03l.21-.05.13-.03.87-.21 1.4-.29 1.51-.24 1.49-.15c.06 0 .12-.01.17-.01h.03l.56-.02.29-.01h.09.07.08.06l.7-.01c.06-.02.12-.02.19-.02z" fill="url(#G)"/><g fill="#6d6e70"><path d="M10.08 32.28c.71 0 1.27-.54 1.27-1.24 0-.69-.56-1.24-1.27-1.24-.68 0-1.24.56-1.24 1.24.01.68.56 1.24 1.24 1.24zm13 13.6c0 .69.57 1.27 1.24 1.27a1.27 1.27 0 0 0 1.27-1.27 1.26 1.26 0 0 0-1.27-1.24 1.26 1.26 0 0 0-1.24 1.24zm-2.81 0c0 .71.54 1.27 1.24 1.27s1.24-.56 1.24-1.27c0-.68-.56-1.24-1.24-1.24a1.24 1.24 0 0 0-1.24 1.24zm15.59 0a1.26 1.26 0 0 0 1.24 1.27 1.27 1.27 0 0 0 1.27-1.27 1.26 1.26 0 0 0-1.27-1.24 1.26 1.26 0 0 0-1.24 1.24zm12.75-1.24a1.26 1.26 0 0 0-1.24 1.24 1.26 1.26 0 0 0 1.24 1.27 1.27 1.27 0 0 0 1.27-1.27c.01-.68-.57-1.24-1.27-1.24zm-4.05 1.24c0 .71.54 1.27 1.24 1.27.69 0 1.24-.56 1.24-1.27 0-.68-.56-1.24-1.24-1.24a1.24 1.24 0 0 0-1.24 1.24zm22.77-13.36a1.27 1.27 0 0 0 1.27-1.27 1.26 1.26 0 0 0-1.27-1.24 1.26 1.26 0 0 0-1.24 1.24c0 .7.55 1.27 1.24 1.27zm17.18 6.66c-.08 1.02-.38 1.79-.87 2.29-.42.42-1.05.66-1.73.66h-6.58c-.27 0-.53-.04-.77-.11l.3-.26c.84-.84 1.3-2.01 1.3-3.29 0-1.27-.46-2.45-1.3-3.33-.03-.03-.06-.06-.09-.08h.01l-.18-.15c-.1-.09-.21-.17-.33-.25-.34-.24-.72-.43-1.12-.57l-.04-.01a5.69 5.69 0 0 0-1.82-.29l-7.08.02c-1.14.06-1.86.27-2.26.68-.55.49-.55 1.08-.55 2.52v.12h.63l.01-.11c.09-1.27.78-1.9 2.17-1.97.1-.01 6.34-.01 6.67-.01.29 0 .56.03.81.1.57.14 1.02.44 1.34.91.42.59.64 1.41.64 2.45 0 1.07-.21 1.93-.63 2.57-.04-.03-.04-.02-.05 0 0 .01-.01.01-.02.02-.29.41-.66.7-1.1.87a2.68 2.68 0 0 1-.98.17H56.2v-6.4c0-.8.14-1.21.91-1.21h.42v-.57h-3.82v9.09c0 .76-.09 1.38-.3 1.96a3.49 3.49 0 0 1-1.59 1.88c-.09.06-.15.13-.16.21 0 .04.01.08.03.11.04.07.12.11.24.11.06 0 .13-.01.23-.03.48-.12 1.48-.37 2.34-.98 1.07-.77 1.63-1.83 1.66-3.16h15.11a5.75 5.75 0 0 0 1.83-.29c.56.19 1.17.29 1.82.29h8.65v-.04a3.8 3.8 0 0 0 2.32-1.16c.74-.77 1.12-1.85 1.12-3.14v-7.24c0-.73.08-1.21 1.21-1.21h.12v-.58H84.5v9.41zm7.48-7.63c0-.77.08-1.24 1.18-1.24h.12v-.51l-3.82-.04v13.36h2.51V31.55zm19.55 15.6a1.27 1.27 0 0 0 1.27-1.27 1.26 1.26 0 0 0-1.27-1.24 1.26 1.26 0 0 0-1.24 1.24c-.01.7.55 1.27 1.24 1.27zm5.32-7.24l-1.76-1.92-.77-.89-.02-.02a1.06 1.06 0 0 1-.1-.12l-.02-.03c-.1-.12-.2-.22-.26-.33-.52-.65-.58-1.56-.17-2.33.38-.72 1.17-1.08 1.99-.88.54.11.95.52 1.38.95.18.24.4.5.61.73.2.23.35.46.47.73.26.57.2 1.07-.19 1.53l-.03.03v.02c-.02.02-.05.04-.07.05l-.05.05c-.08.08-.13.13-.13.2v.05l.33.38.25-.24.08-.08h.03l.12-.12c.46-.43.89-.84.89-1.44-.09-1.02-.96-1.89-1.6-2.52l-.16-.16c-.63-.62-1.25-1.07-1.8-1.3a3.35 3.35 0 0 0-1.15-.2c-.88 0-1.73.32-2.31.89-.67.61-1.06 1.43-1.09 2.3-.04 1.04.38 2.08 1.24 3.02l3.54 3.89h-11.69c-.91 0-1.62-.36-2.11-1.07-.45-.64-.68-1.53-.68-2.63 0-2.23.99-3.46 2.79-3.46 1.6 0 2.38.63 2.46 1.98l.01.11h.63v-.12c0-1.43 0-2.02-.53-2.52-.53-.47-1.51-.69-2.99-.69-1.44 0-2.67.47-3.57 1.37-.86.86-1.31 2.01-1.31 3.33 0 1.31.47 2.48 1.31 3.3.9.9 2.13 1.37 3.57 1.37h15.81l-.18-.2-2.77-3.01zm-6.9 5.97c0-.68-.56-1.24-1.24-1.24s-1.24.56-1.24 1.24c0 .71.54 1.27 1.24 1.27.69 0 1.24-.56 1.24-1.27zm17.96-4.12c.84-.84 1.3-2.01 1.3-3.29 0-1.27-.46-2.45-1.3-3.33-.9-.89-2.13-1.37-3.57-1.37-1.54 0-2.48.22-2.96.69-.55.49-.55 1.08-.55 2.52v.12h.63l.01-.11c.1-1.35.88-1.98 2.46-1.98 1.8 0 2.79 1.23 2.79 3.46 0 1.1-.23 1.98-.68 2.63-.48.69-1.18 1.04-2.08 1.04h-3.33v1h3.72c1.42-.01 2.66-.49 3.56-1.38z"/><path d="M15.45 41.8c.4.47 1 .92 1.51 1.13.27.09.61.15 1.04.19h21.74a5.75 5.75 0 0 0 1.83-.29c.56.19 1.17.29 1.82.29h3.46c.91 0 1.87-.46 2.63-1.25.82-.82 1.27-1.97 1.27-3.23v-2.82c0-.77.06-1.24.91-1.24h.43v-.54h-3.85v5.17c-.08 1.02-.38 1.79-.87 2.29-.56.52-1.25.63-1.73.63h-1.85c-.27 0-.53-.04-.77-.11l.3-.26c.84-.84 1.3-2.01 1.3-3.29 0-1.27-.46-2.45-1.3-3.33-.03-.03-.06-.05-.09-.08h.01l-.18-.15c-.1-.09-.21-.17-.33-.25-.34-.24-.72-.43-1.12-.57l-.04-.01c-.56-.19-1.18-.29-1.83-.29l-7.07.02c-1.14.06-1.86.27-2.26.68-.55.49-.55 1.08-.55 2.52v.12h.63l.01-.11c.09-1.27.78-1.9 2.17-1.97.1-.01 6.34-.01 6.67-.01.29 0 .56.03.81.1.57.14 1.02.44 1.34.91.42.59.64 1.41.64 2.45 0 1.07-.21 1.93-.63 2.56-.01.01-.02.02-.03.04 0 .01-.01.01-.01.02-.29.41-.66.7-1.1.87a2.68 2.68 0 0 1-.98.17H24.17v-6.3c0-.8.14-1.24.91-1.24h.42v-.54h-3.84v8.09h-2.43c-1.71 0-2.7-1.06-2.79-2.97v-3.33c0-.8.14-1.24.91-1.24h.43v-.54h-3.82v5.17c-.08 1.02-.38 1.79-.88 2.29-.45.43-1.07.66-1.73.66H5.94c-.91 0-1.62-.36-2.12-1.07-.45-.64-.68-1.53-.68-2.63 0-2.23.99-3.46 2.79-3.46 1.58 0 2.38.65 2.45 1.98l.02.07h.63v-.12c0-1.43 0-2.02-.52-2.52-.54-.47-1.51-.69-2.99-.69-1.44 0-2.67.47-3.57 1.37-.84.85-1.31 2.03-1.31 3.33 0 1.31.46 2.48 1.31 3.3.9.9 2.13 1.37 3.57 1.37h7.06a3.78 3.78 0 0 0 2.87-1.34zm123.2-9.28a1.26 1.26 0 0 0 1.27-1.24 1.27 1.27 0 0 0-1.27-1.27 1.26 1.26 0 0 0-1.24 1.27c0 .67.56 1.24 1.24 1.24zm-1.24 1.52v5.17c-.08 1.02-.38 1.79-.87 2.29-.56.52-1.25.63-1.73.63h-1.82V31.55c0-.73.09-1.24 1.22-1.24h.12v-.55h-3.82v13.36h5.51c.91 0 1.87-.46 2.63-1.25.83-.82 1.28-1.97 1.28-3.23v-2.82c0-.77.06-1.24.91-1.24h.42v-.54h-3.85z"/></g><linearGradient id="H" gradientUnits="userSpaceOnUse" x1="13.588" y1="58.662" x2="27.196" y2="58.662"><stop offset=".659" stop-color="#048168"/><stop offset=".869" stop-color="#077b65"/></linearGradient><path d="M25.83 64.51c-.34-.34-.58-.84-.94-1.64l-4.6-11.21-.02-.05h-.74l-5.9 13.88-.05.11h1.13l1.66-3.99h5.77l.52 1.32c.47 1.33 1.23 1.99 1.79 2.31.72.41 1.39.46 1.83.46.33 0 .62-.03.85-.1l.06-.02v-.54l-.07-.01c-.56-.06-.96-.22-1.29-.52zm-4.16-3.88h-4.91l2.5-5.79 2.41 5.79z" fill="url(#H)"/><linearGradient id="I" gradientUnits="userSpaceOnUse" x1="26.528" y1="58.614" x2="30.451" y2="58.614"><stop offset=".659" stop-color="#048168"/><stop offset=".869" stop-color="#077b65"/></linearGradient><path d="M28.49 51.62h-1.96v.57h.49c1.16 0 1.39.74 1.39 2.03V65.6h2.04V54.22c0-1.11-.12-1.75-.4-2.12-.32-.4-.86-.48-1.56-.48z" fill="url(#I)"/><linearGradient id="J" gradientUnits="userSpaceOnUse" x1="32.051" y1="60.722" x2="42.075" y2="60.722"><stop offset=".659" stop-color="#048168"/><stop offset=".869" stop-color="#077b65"/></linearGradient><use xlink:href="#T" fill="url(#J)"/><linearGradient id="K" gradientUnits="userSpaceOnUse" x1="43.675" y1="60.498" x2="58.904" y2="60.498"><stop offset=".659" stop-color="#048168"/><stop offset=".869" stop-color="#077b65"/></linearGradient><path d="M55.92 55.39c-1.19 0-2.41.55-3.14 1.4-.59-1.24-1.67-1.4-2.54-1.4-1.39 0-2.31.65-2.74 1.05h-.02c-.27-.57-.84-.83-1.84-.83h-1.96v.57h.49c1.17 0 1.39.7 1.39 2v7.42h2.04v-8.06c.67-.7 1.33-1.04 2.03-1.04 1.09 0 1.58.84 1.58 2.73v6.37h2.04v-6.37c0-.42 0-1.11-.09-1.46.17-.26.46-.56.88-.87.32-.17.81-.41 1.24-.41 1.09 0 1.58.84 1.58 2.73v6.37h2.04v-6.37c0-1.39-.3-2.43-.88-3.09-.49-.5-1.16-.74-2.1-.74z" fill="url(#K)"/><linearGradient id="L" gradientUnits="userSpaceOnUse" x1="60.438" y1="60.498" x2="70.653" y2="60.498"><stop offset=".659" stop-color="#048168"/><stop offset=".869" stop-color="#077b65"/></linearGradient><path d="M69.51 56.14c-.6-.51-1.4-.75-2.51-.75-1.39 0-2.31.65-2.74 1.05h-.02c-.27-.57-.84-.83-1.84-.83h-1.96v.57h.49c1.17 0 1.39.7 1.39 2v7.42h2.04v-8.06c.67-.7 1.33-1.04 2.03-1.04.59 0 1.14.21 1.54.58.44.47.68 1.24.68 2.15v6.37h2.04v-6.37c0-1.39-.38-2.43-1.14-3.09z" fill="url(#L)"/><linearGradient id="M" gradientUnits="userSpaceOnUse" x1="73.658" y1="53.281" x2="75.953" y2="53.281"><stop offset=".659" stop-color="#048168"/><stop offset=".869" stop-color="#077b65"/></linearGradient><path d="M74.92 54.49c.63 0 1.04-.39 1.04-1 0-.8-.55-1.42-1.26-1.42-.63 0-1.04.39-1.04 1 0 .77.57 1.42 1.26 1.42z" fill="url(#M)"/><linearGradient id="N" gradientUnits="userSpaceOnUse" x1="72.157" y1="60.61" x2="76.08" y2="60.61"><stop offset=".659" stop-color="#048168"/><stop offset=".869" stop-color="#077b65"/></linearGradient><path d="M74.12 55.61h-1.96v.57h.49c1.17 0 1.39.7 1.39 2v7.42h2.04v-7.42c0-1.11-.12-1.71-.4-2.09-.3-.4-.78-.48-1.56-.48z" fill="url(#N)"/><linearGradient id="O" gradientUnits="userSpaceOnUse" x1="84.015" y1="58.614" x2="96.455" y2="58.614"><stop offset=".659" stop-color="#048168"/><stop offset=".869" stop-color="#077b65"/></linearGradient><path d="M95.87 62.13c-1.24 2.01-2.67 2.9-4.66 2.9-1.61 0-2.89-.65-3.8-1.95-.75-1.12-1.17-2.63-1.17-4.27 0-2.32.5-4.07 1.48-5.19.84-.96 2.01-1.44 3.49-1.44 2.34 0 3.71 1.29 4.2 3.93l.01.06h.59v-.08c0-1.29 0-2.52-.56-3.21-.7-.82-2.35-1.69-4.88-1.69-1.75 0-3.44.81-4.63 2.23-1.25 1.42-1.94 3.33-1.94 5.39 0 1.98.63 3.79 1.78 5.1 1.19 1.36 2.89 2.1 4.78 2.1 1.4 0 2.46-.24 3.36-.75 1.07-.66 1.88-1.56 2.49-2.75l.03-.06-.54-.41-.03.09z" fill="url(#O)"/><linearGradient id="P" gradientUnits="userSpaceOnUse" x1="97.043" y1="58.614" x2="100.966" y2="58.614"><stop offset=".659" stop-color="#048168"/><stop offset=".869" stop-color="#077b65"/></linearGradient><path d="M99 51.62h-1.96v.57h.49c1.16 0 1.39.74 1.39 2.03V65.6h2.04V54.22c0-1.11-.12-1.75-.4-2.12-.32-.4-.85-.48-1.56-.48z" fill="url(#P)"/><linearGradient id="Q" gradientUnits="userSpaceOnUse" x1="32.057" y1="60.722" x2="42.08" y2="60.722"><stop offset=".659" stop-color="#048168"/><stop offset=".869" stop-color="#077b65"/></linearGradient><use xlink:href="#T" x="70.51" fill="url(#Q)"/><linearGradient id="R" gradientUnits="userSpaceOnUse" x1="113.87" y1="58.726" x2="124.405" y2="58.726"><stop offset=".659" stop-color="#048168"/><stop offset=".869" stop-color="#077b65"/></linearGradient><path d="M123.43 56.92c-.74-1.02-1.78-1.53-3.1-1.53-1.08 0-1.86.28-2.54.59v-1.76c0-1.04-.07-1.72-.4-2.12-.32-.39-.86-.48-1.56-.48h-1.96v.57h.49c1.17 0 1.39.71 1.39 2.03V65.6h1.17l.73-.96h.02c.36.46 1.2 1.18 2.88 1.18a3.34 3.34 0 0 0 2.87-1.57c.64-.92.97-2.18.97-3.65.01-1.48-.32-2.75-.96-3.68zm-5.64.07c.64-.3 1.3-.61 1.93-.61.83 0 1.47.39 1.94 1.2.39.72.6 1.77.6 3.03 0 1.2-.2 2.27-.57 3-.43.8-1.03 1.2-1.78 1.2-.91 0-1.59-.38-2.13-1.19v-6.63z" fill="url(#R)"/><defs ><path id="T" d="M40.04 63.65c-.45.49-1.16 1.07-2.03 1.07-.6 0-1.14-.22-1.51-.62-.47-.44-.71-1.16-.71-2.15v-3.77c0-1.11-.12-1.71-.4-2.09-.3-.4-.78-.48-1.56-.48h-1.77v.57h.3c1.16 0 1.39.73 1.39 2v3.77c0 1.42.37 2.43 1.14 3.09.62.53 1.43.79 2.48.79 1.42 0 2.34-.65 2.78-1.05h.03l.73.83h1.17v-9.99h-2.04v8.03z"/></defs></svg>